<?xml version="1.0" encoding="utf-8"?>
<!-- Generator: Adobe Illustrator 22.1.0, SVG Export Plug-In . SVG Version: 6.00 Build 0)  -->
<svg version="1.1" id="Calque_1" xmlns="http://www.w3.org/2000/svg" xmlns:xlink="http://www.w3.org/1999/xlink" x="0px" y="0px"
	 viewBox="0 0 352 512" style="enable-background:new 0 0 352 512;" xml:space="preserve">
<style type="text/css">
	.st0{fill:#FFFFFF;}
</style>
<path class="st0" d="M176,80c-52.9,0-96,43.1-96,96c0,8.8,7.2,16,16,16s16-7.2,16-16c0-35.3,28.7-64,64-64c8.8,0,16-7.2,16-16
	S184.8,80,176,80z M96.1,459.2c0,3.1,0.9,6.2,2.7,8.8l24.5,36.8c3,4.5,8,7.1,13.3,7.1h78.9c5.4,0,10.4-2.7,13.3-7.1l24.5-36.8
	c1.7-2.6,2.7-5.7,2.7-8.8L256,416H96L96.1,459.2z M176,0C73.7,0,0,83,0,176c0,44.4,16.5,84.9,43.6,115.8
	c16.6,19,42.7,58.8,52.4,92.2v0.1h48v-0.1c0-4.8-0.7-9.5-2.1-14.1C136.2,352,119,305,79.7,260.1C59.1,236.7,48.1,207,48.1,176
	C47.9,102.4,107.7,48,176,48c70.6,0,128,57.4,128,128c0,31-11.2,60.8-31.6,84.1c-39.1,44.6-56.4,91.5-62.1,109.5
	c-1.5,4.6-2.2,9.4-2.2,14.3v0.1h48v0c9.7-33.4,35.8-73.2,52.4-92.2C335.5,260.9,352,220.4,352,176C352,78.8,273.2,0,176,0z"/>
</svg>
