<?xml version="1.0" encoding="utf-8"?>
<!-- Generator: Adobe Illustrator 22.1.0, SVG Export Plug-In . SVG Version: 6.00 Build 0)  -->
<svg version="1.1" id="Calque_1" xmlns="http://www.w3.org/2000/svg" xmlns:xlink="http://www.w3.org/1999/xlink" x="0px" y="0px"
	 viewBox="0 0 512 512" style="enable-background:new 0 0 512 512;" xml:space="preserve">
<style type="text/css">
	.st0{fill:#FFFFFF;}
</style>
<path class="st0" d="M416,48v416c0,26.5-21.5,48-48,48H144c-26.5,0-48-21.5-48-48V48c0-26.5,21.5-48,48-48h224
	C394.5,0,416,21.5,416,48z M512,106v12c0,3.3-2.7,6-6,6h-18v6c0,3.3-2.7,6-6,6h-42V88h42c3.3,0,6,2.7,6,6v6h18
	C509.3,100,512,102.7,512,106z M512,202v12c0,3.3-2.7,6-6,6h-18v6c0,3.3-2.7,6-6,6h-42v-48h42c3.3,0,6,2.7,6,6v6h18
	C509.3,196,512,198.7,512,202z M512,298v12c0,3.3-2.7,6-6,6h-18v6c0,3.3-2.7,6-6,6h-42v-48h42c3.3,0,6,2.7,6,6v6h18
	C509.3,292,512,294.7,512,298z M512,394v12c0,3.3-2.7,6-6,6h-18v6c0,3.3-2.7,6-6,6h-42v-48h42c3.3,0,6,2.7,6,6v6h18
	C509.3,388,512,390.7,512,394z M30,376h42v48H30c-3.3,0-6-2.7-6-6v-6H6c-3.3,0-6-2.7-6-6v-12c0-3.3,2.7-6,6-6h18v-6
	C24,378.7,26.7,376,30,376z M30,280h42v48H30c-3.3,0-6-2.7-6-6v-6H6c-3.3,0-6-2.7-6-6v-12c0-3.3,2.7-6,6-6h18v-6
	C24,282.7,26.7,280,30,280z M30,184h42v48H30c-3.3,0-6-2.7-6-6v-6H6c-3.3,0-6-2.7-6-6v-12c0-3.3,2.7-6,6-6h18v-6
	C24,186.7,26.7,184,30,184z M30,88h42v48H30c-3.3,0-6-2.7-6-6v-6H6c-3.3,0-6-2.7-6-6v-12c0-3.3,2.7-6,6-6h18v-6
	C24,90.7,26.7,88,30,88z"/>
</svg>
